<?xml version="1.0" encoding="UTF-8"?>
<svg version="1.1" xmlns="http://www.w3.org/2000/svg" width="800" height="800">
<path d="M0 0 C264 0 528 0 800 0 C800 264 800 528 800 800 C536 800 272 800 0 800 C0 536 0 272 0 0 Z " fill="#FEFEFE" transform="translate(0,0)"/>
<path d="M0 0 C5.34063113 4.29434053 8.38541247 10.22250453 11.8125 16.0625 C12.46484619 17.16231201 13.11719238 18.26212402 13.78930664 19.39526367 C20.31108944 30.4144834 26.65399333 41.5378384 32.97450256 52.6733551 C36.30456844 58.54017295 39.65189399 64.39706185 43.00100708 70.25302124 C44.66806221 73.16826702 46.33397291 76.08416663 48 79 C48.66666119 80.1666698 49.33332786 81.33333646 50 82.5 C54 89.50000001 54 89.50000001 54.99996948 91.24995422 C55.66672911 92.41677849 56.3334975 93.58359774 57.00027466 94.75041199 C58.66559088 97.66462646 60.33075537 100.57892742 61.99560547 103.4934082 C65.01154262 108.77275062 68.02862616 114.05142187 71.05128479 119.32691956 C78.98513361 133.17417836 86.854898 147.0548104 94.63671875 160.98828125 C97.90456355 166.83684686 101.1989285 172.67013977 104.5 178.5 C110.77985599 189.59460289 117.01100776 200.71613533 123.23388672 211.84277344 C126.15398137 217.06293711 129.07713566 222.28138679 132 227.5 C133.16668154 229.58332501 134.3333482 231.66665834 135.5 233.75 C136.36625 235.296875 136.36625 235.296875 137.25 236.875 C142.5 246.25 142.5 246.25 144.25024414 249.37548828 C145.41603752 251.45722732 146.58189032 253.53893309 147.74780273 255.62060547 C150.6783206 260.85305923 153.60777916 266.08610086 156.53515625 271.3203125 C162.16934113 281.39204122 167.81542249 291.45661343 173.5 301.5 C179.77963839 312.59472704 186.01100698 323.71613393 192.23388672 334.84277344 C195.15398136 340.06293709 198.07709832 345.28140773 201 350.5 C204.51323852 356.77258848 208.02581749 363.04554119 211.53515625 369.3203125 C217.16934113 379.39204122 222.81542249 389.45661343 228.5 399.5 C234.77963839 410.59472704 241.01100698 421.71613393 247.23388672 432.84277344 C250.15398137 438.06293711 253.07713566 443.28138679 256 448.5 C257.16668154 450.58332501 258.3333482 452.66665834 259.5 454.75 C260.36625 456.296875 260.36625 456.296875 261.25 457.875 C263 461 264.75 464.125 266.5 467.25 C267.07741943 468.28108887 267.65483887 469.31217773 268.24975586 470.37451172 C269.41729579 472.45943936 270.58477619 474.54440034 271.75219727 476.62939453 C274.65501752 481.81360899 277.55884467 486.99725417 280.46484375 492.1796875 C287.13346887 504.07507286 293.77439983 515.98538312 300.39208984 527.90917969 C306.32263892 538.59061927 312.29065954 549.25086025 318.26611328 559.90722656 C321.17939142 565.10370747 324.08949125 570.30196766 327 575.5 C327.57685547 576.52996094 328.15371094 577.55992187 328.74804688 578.62109375 C331.67851335 583.85336797 334.60786788 589.0862595 337.53515625 594.3203125 C343.14672512 604.35144777 348.77185171 614.3742986 354.4375 624.375 C365.81591072 644.47349324 377.09008409 664.64266847 388 685 C388.39251953 685.73154297 388.78503906 686.46308594 389.18945312 687.21679688 C390.22327414 689.15862999 391.24067148 691.10784787 392.25 693.0625 C392.79140625 694.10535156 393.3328125 695.14820313 393.890625 696.22265625 C395.09579439 699.23982328 395.61760419 700.8073848 395 704 C391.47195532 709.57283272 391.47195532 709.57283272 388.09060637 710.55411362 C385.71515764 710.76688013 383.4041956 710.78469422 381.01943684 710.74108028 C380.10929851 710.74830295 379.19916019 710.75552561 378.26144192 710.76296714 C375.19483334 710.77992579 372.13007991 710.75389854 369.06355286 710.72825623 C366.84976464 710.73158719 364.63597907 710.73755099 362.4222042 710.7459293 C356.32589047 710.7613271 350.23019472 710.73917397 344.13394749 710.71105278 C338.23897158 710.68969596 332.34407447 710.69648425 326.44907294 710.70260935 C314.38845875 710.71414519 302.32803469 710.69759248 290.26746559 710.6649456 C278.32294314 710.63267545 266.37850185 710.61236289 254.43393517 710.60820198 C253.32026328 710.60780101 253.32026328 710.60780101 252.18409296 710.60739194 C248.41359528 710.6060898 244.64309757 710.60499081 240.8725998 710.60396302 C214.15793309 710.59624629 187.44337291 710.55994732 160.72875977 710.50756836 C134.77921511 710.45672602 108.82971704 710.42130157 82.88012695 710.4050293 C82.08053674 710.4045232 81.28094653 710.40401711 80.45712631 710.40349568 C74.02486281 710.39943146 67.59259927 710.39543424 61.16033565 710.39155623 C33.43137077 710.37482951 5.70241551 710.34722201 -22.02653661 710.31607732 C-26.51069508 710.31104239 -30.99485367 710.30615658 -35.47901243 710.30138621 C-51.93854414 710.28379945 -68.39806082 710.26268403 -84.85757133 710.23058056 C-91.35693361 710.21797478 -97.8562884 710.20685384 -104.35565948 710.19995499 C-110.29605338 710.1935535 -116.23641928 710.18251893 -122.17679778 710.16762257 C-124.33480931 710.16300416 -126.49282521 710.16008215 -128.65084138 710.15895586 C-131.56624653 710.15715875 -134.48157159 710.14930732 -137.39696026 710.1398077 C-138.6768291 710.14117559 -138.6768291 710.14117559 -139.98255387 710.14257112 C-145.77165353 710.11417323 -145.77165353 710.11417323 -148 709 C-148.73415164 702.86884167 -146.22657658 698.82734563 -143.375 693.625 C-142.88499512 692.71089355 -142.39499023 691.79678711 -141.89013672 690.85498047 C-136.99083587 681.80222419 -131.78155148 672.93026971 -126.55078125 664.06640625 C-123.61402263 659.07817045 -120.76630447 654.04567082 -117.94628906 648.99072266 C-113.45590564 640.94265649 -108.87512384 632.99410448 -103.875 625.25 C-103.42552002 624.55269775 -102.97604004 623.85539551 -102.51293945 623.13696289 C-97.45944924 615.44653139 -97.45944924 615.44653139 -93.6455164 614.27962494 C-82.70096283 612.60883883 -71.79773358 612.70679388 -60.74975586 612.71289062 C-58.51790113 612.7068576 -56.28604866 612.69993114 -54.05419922 612.69218445 C-49.2722247 612.67736485 -44.49029143 612.66856393 -39.70829582 612.66447449 C-32.14920291 612.65773411 -24.59019824 612.63595206 -17.03114319 612.61193848 C-6.43882117 612.57966976 4.15350028 612.55278771 14.74584961 612.53173828 C15.7515528 612.52973579 15.7515528 612.52973579 16.77757322 612.52769285 C22.22178196 612.51690854 27.66599137 612.50648085 33.11020088 612.4960928 C37.88263099 612.48697633 42.6550608 612.47772573 47.42749023 612.46826172 C48.09986121 612.46693098 48.77223219 612.46560023 49.46497805 612.46422917 C60.67063431 612.44181047 71.87625673 612.41154698 83.08187956 612.37586927 C90.59985857 612.35250144 98.11777536 612.33877551 105.63578713 612.33237457 C110.3013022 612.32644979 114.96676643 612.31236689 119.63225555 612.29603004 C121.7994693 612.29013952 123.96669543 612.28768482 126.13391685 612.28886986 C129.08560766 612.29002407 132.0370109 612.27905266 134.98866272 612.26501465 C136.28275223 612.26996311 136.28275223 612.26996311 137.60298496 612.27501154 C138.39366287 612.26877944 139.18434077 612.26254735 139.99897861 612.2561264 C141.02048806 612.25433514 141.02048806 612.25433514 142.06263405 612.25250769 C144.40119295 611.94771029 145.99394356 611.22746433 148 610 C149.63922704 606.72154593 149.53026259 603.54102526 149 600 C147.62961423 596.46810846 145.7797022 593.26867272 143.875 590 C143.33875 589.05012207 142.8025 588.10024414 142.25 587.12158203 C140.51893012 584.06977363 138.76193889 581.0340761 137 578 C135.83587716 575.97659721 134.67181447 573.95315982 133.5078125 571.9296875 C130.04195998 565.9312639 126.52596651 559.96322414 123 554 C122.18668213 552.61723877 122.18668213 552.61723877 121.35693359 551.20654297 C101.34513151 517.2042432 81.35783945 497.30284409 44 484 C42.77410156 483.53207031 41.54820312 483.06414062 40.28515625 482.58203125 C33.85168181 480.15797048 27.28978875 478.09479289 20.75585938 475.9609375 C12.05993802 473.09330831 12.05993802 473.09330831 8.1640625 471.375 C3.93953058 469.53915403 -0.39660924 468.3359109 -4.81640625 467.0625 C-14.05636712 463.97873392 -14.05636712 463.97873392 -16.4375 459.75 C-16.76621094 459.20859375 -17.09492188 458.6671875 -17.43359375 458.109375 C-18.32529016 454.78857456 -17.79781341 452.32062877 -17 449 C-5.13597419 430.89305914 17.68697655 425.60843499 37.48046875 420.91137695 C60.82244055 415.75292891 60.82244055 415.75292891 80 403 C80.60990377 400.27466423 80.50013521 397.74212063 80 395 C77.2071891 391.62535349 72.15420169 390.20275655 68 389 C67.01 389 66.02 389 65 389 C65.515625 389.53625 66.03125 390.0725 66.5625 390.625 C68 393 68 393 68 395.9375 C66.68122517 399.97624793 65.40370028 401.41318779 62 404 C54.98935516 407.0285575 47.65582184 409.02147021 40.25 410.8125 C38.72076904 411.18870483 38.72076904 411.18870483 37.16064453 411.57250977 C26.78891179 414.0990769 16.37291936 416.43176196 5.95578003 418.76234436 C-5.06335665 421.2283693 -16.06032794 423.78388587 -27.05078125 426.375 C-31.43734186 427.40812584 -35.82840368 428.41016382 -40.23046875 429.375 C-41.18163574 429.58817871 -42.13280273 429.80135742 -43.11279297 430.02099609 C-44.82937324 430.40504561 -46.54828118 430.77893952 -48.27001953 431.13916016 C-56.48812911 433.00494005 -63.38990449 436.63178347 -69 443 C-69.65053345 443.69017212 -69.65053345 443.69017212 -70.31420898 444.39428711 C-74.95607084 449.4856933 -78.10572686 455.1533044 -81.375 461.1875 C-82.61198868 463.43430586 -83.8503207 465.68037256 -85.08984375 467.92578125 C-85.40858963 468.50521484 -85.72733551 469.08464844 -86.05574036 469.68164062 C-89.28046005 475.53568349 -92.60251469 481.33332377 -95.93325806 487.12750244 C-102.23913195 498.10045503 -108.43432117 509.12955244 -114.56396484 520.20214844 C-119.05090787 528.30446151 -123.58791905 536.37683947 -128.15478516 544.43432617 C-132.14883479 551.48412329 -136.11032214 558.55165662 -140.0625 565.625 C-144.81546506 574.12824446 -149.617239 582.60133167 -154.46337891 591.05175781 C-158.93520184 598.86082818 -163.33164573 606.71121646 -167.72094727 614.56689453 C-172.13209369 622.459378 -176.57854756 630.33125286 -181.03710938 638.19702148 C-184.57350851 644.44704172 -188.06572005 650.72027109 -191.53979492 657.00512695 C-197.13512289 667.12537859 -202.79715345 677.1990097 -208.625 687.1875 C-209.19275146 688.16066162 -209.76050293 689.13382324 -210.34545898 690.13647461 C-211.88634102 692.76411554 -213.4421728 695.38238412 -215 698 C-215.4530249 698.78528076 -215.9060498 699.57056152 -216.37280273 700.37963867 C-216.79762939 701.09740479 -217.22245605 701.8151709 -217.66015625 702.5546875 C-218.02246338 703.17714355 -218.38477051 703.79959961 -218.75805664 704.44091797 C-222.18715461 708.7456594 -228.2730973 709.15936903 -233.38982773 709.78146744 C-239.19749485 710.26770522 -245.03356574 710.17557544 -250.85791016 710.19287109 C-252.35672693 710.2007847 -253.85554185 710.2090544 -255.35435486 710.21765137 C-260.24923932 710.24370016 -265.14413167 710.25914989 -270.0390625 710.2734375 C-271.72911966 710.27880201 -273.41917678 710.28417953 -275.10923386 710.28956985 C-282.13693058 710.3111628 -289.16462515 710.32990165 -296.19234657 710.34119225 C-306.24585442 710.35745575 -316.2989775 710.39073243 -326.35234034 710.44759309 C-333.43449013 710.48628071 -340.51653688 710.50582282 -347.59878957 710.51111281 C-351.82442382 710.51476446 -356.04964602 710.52676802 -360.27516556 710.55921555 C-364.24639454 710.58928012 -368.2169616 710.59561421 -372.18828011 710.58383179 C-373.64354356 710.583611 -375.09883767 710.59192092 -376.55399513 710.60948563 C-388.90861165 710.75048044 -388.90861165 710.75048044 -392.90365601 707.66665649 C-395 705 -395 705 -395.140625 701.75 C-393.76196751 697.21742744 -391.92799111 693.1975981 -389.75 689 C-389.30672363 688.12972168 -388.86344727 687.25944336 -388.40673828 686.36279297 C-384.55378661 678.88431618 -380.42275946 671.57177682 -376.24121094 664.2734375 C-371.66706609 656.26404896 -367.31307933 648.15153876 -363 640 C-357.76859271 630.1182631 -352.41271111 620.32915344 -346.86328125 610.62109375 C-342.60941306 603.15063065 -338.53624997 595.58942444 -334.5 588 C-329.41867942 578.44644343 -324.20685179 568.98060424 -318.84375 559.58203125 C-314.16352968 551.35445568 -309.68660494 543.02464541 -305.22363281 534.67773438 C-301.47478337 527.68568461 -297.6256801 520.76191694 -293.6875 513.875 C-288.43515993 504.6801627 -283.44046193 495.36443098 -278.5 486 C-273.10278806 475.77265715 -267.60858185 465.6215138 -261.8762207 455.57666016 C-257.57948772 448.04591993 -253.36894186 440.47009456 -249.1875 432.875 C-248.85209198 432.26596832 -248.51668396 431.65693665 -248.17111206 431.02944946 C-246.46282002 427.92724514 -244.75535327 424.82458773 -243.04833984 421.72167969 C-240.03586638 416.24676654 -237.01576694 410.77606217 -233.99615479 405.30508423 C-232.99963578 403.49934001 -232.00342696 401.69342504 -231.00732422 399.88745117 C-227.98154803 394.40177375 -224.95466203 388.91672006 -221.92304993 383.43426514 C-220.21890036 380.35235975 -218.51552283 377.27002814 -216.8125 374.1875 C-216.31174454 373.28121857 -216.31174454 373.28121857 -215.8008728 372.35662842 C-211.26067468 364.13633225 -206.76811919 355.89150636 -202.3125 347.625 C-197.58344826 338.85379383 -192.72977547 330.16105129 -187.80175781 321.50024414 C-184.1444602 315.06144069 -180.58190833 308.57752219 -177.0625 302.0625 C-172.34266061 293.34121026 -167.40880095 284.76226092 -162.37597656 276.21826172 C-159.22459178 270.85566982 -156.12402477 265.46976272 -153.10546875 260.03125 C-152.15293213 258.31578979 -152.15293213 258.31578979 -151.18115234 256.56567383 C-149.95946536 254.35709234 -148.74215391 252.14608335 -147.52978516 249.93237305 C-146.97983887 248.93761963 -146.42989258 247.94286621 -145.86328125 246.91796875 C-145.38157471 246.03906982 -144.89986816 245.1601709 -144.40356445 244.25463867 C-143.08081916 242.12982518 -141.94450317 240.56734598 -140 239 C-136.6875 238.375 -136.6875 238.375 -133 239 C-127.67391027 244.45361582 -123.74195406 250.76184899 -119.6875 257.1875 C-118.99454834 258.27828857 -118.30159668 259.36907715 -117.58764648 260.49291992 C-108.76645745 274.41664575 -100.28455239 288.55000147 -91.79003906 302.67431641 C-89.59293348 306.32680738 -87.39225757 309.97712274 -85.1875 313.625 C-84.83455872 314.20903595 -84.48161743 314.7930719 -84.11798096 315.39480591 C-78.02610652 325.45851775 -71.65745693 335.30243268 -65 345 C-60.45260859 344.12637532 -57.79091722 341.45630689 -54.4375 338.4375 C-50.04233213 334.5923034 -45.64145617 330.79635266 -41 327.25 C-40.175 326.61578125 -39.35 325.9815625 -38.5 325.328125 C-35.37120782 323.66595415 -33.50224157 323.56107677 -30 324 C-21.02253505 328.09903544 -12.98811582 335.39939953 -5.15087891 341.36669922 C-1.44735407 344.17902398 2.27752377 346.96284029 6 349.75 C7.35426007 350.76550045 8.70843565 351.78111359 10.0625 352.796875 C11.031875 353.52390625 12.00125 354.2509375 13 355 C12.53851563 354.20980469 12.07703125 353.41960937 11.6015625 352.60546875 C3.95191261 339.37731923 -3.64416541 326.19845961 -8.86328125 311.8046875 C-11.21509471 306.00193126 -14.32207029 301.04579447 -19.4375 297.375 C-22 295 -22 295 -22.125 291.9375 C-21.8008104 290.61153531 -21.41542897 289.30026921 -21 288 C-20.69964844 287.01773437 -20.39929688 286.03546875 -20.08984375 285.0234375 C-17.43445917 276.72409861 -17.43445917 276.72409861 -15.88671875 274.14453125 C-14.50686404 270.80734958 -14.71187681 267.42681032 -14.75 263.875 C-14.74226563 263.14667969 -14.73453125 262.41835938 -14.7265625 261.66796875 C-14.59893557 257.36956531 -14.59893557 257.36956531 -17 254 C-22.99927003 254.05487137 -27.20314774 257.41261087 -32 260.625 C-39.77244394 265.69638186 -47.57907157 270.0986237 -56 274 C-55.41181327 269.9405473 -53.30769509 267.49153322 -50.8125 264.3125 C-50.37397705 263.75071045 -49.9354541 263.1889209 -49.48364258 262.61010742 C-46.37580707 258.65726706 -43.171797 254.78859278 -39.95092773 250.92773438 C-32.16898642 241.59328338 -25.0051987 231.92647717 -18 222 C-16.54783581 219.95263242 -15.09383194 217.90660459 -13.63769531 215.86206055 C-12.77910861 214.65564184 -11.92283771 213.4475703 -11.06933594 212.23754883 C-9.48126801 209.99818318 -7.94561475 207.94561475 -6 206 C-3.55039116 206.22856727 -2.30910336 206.72274013 -0.47306824 208.36962891 C2.93807614 212.56009951 6.06417905 216.84714491 9.01171875 221.375 C9.46545364 222.06198975 9.91918854 222.74897949 10.38667297 223.45678711 C11.82482528 225.63490627 13.25681314 227.81697128 14.6875 230 C20.25324213 238.48470314 25.84410768 246.93012483 31.83203125 255.125 C32.47793465 256.01167358 32.47793465 256.01167358 33.1368866 256.91625977 C34.40269702 258.62899608 35.69352958 260.31810152 37 262 C37.49511078 262.6487207 37.99022156 263.29744141 38.50033569 263.96582031 C39.01029083 264.60358398 39.52024597 265.24134766 40.0456543 265.8984375 C40.50441452 266.48028809 40.96317474 267.06213867 41.43583679 267.66162109 C43.99622512 269.85242172 46.52960222 269.56866454 49.76171875 269.32421875 C51.76519101 269.03401247 53.758805 268.67755242 55.75 268.3125 C59.74238491 267.92861684 60.76694617 268.73587361 64 271 C69.77834911 276.54939565 74.65195436 283.00525177 79.55444336 289.32446289 C83.93217528 294.95815725 88.46329123 300.45812621 93.01171875 305.9543457 C96.1045086 309.69360032 99.17406712 313.4461585 102.1875 317.25 C106.59245249 322.77741362 111.10363248 328.20745299 115.74072266 333.54150391 C116.81685869 334.78788558 117.86989458 336.05414924 118.91796875 337.32421875 C127.42799608 346.88625829 141.34992701 351.41057731 153 356 C152.50113281 355.3915625 152.00226562 354.783125 151.48828125 354.15625 C148.98983701 351.10608468 146.49435613 348.05350833 144 345 C143.49678223 344.38431152 142.99356445 343.76862305 142.47509766 343.13427734 C136.71026199 336.07649429 130.97524582 329.0018547 125.375 321.8125 C121.34022666 316.63623822 117.16978371 311.59741624 112.90917969 306.60595703 C109.59966135 302.72513871 106.38873899 298.78012188 103.21875 294.78515625 C99.26416111 289.82103323 95.25852928 284.89860367 91.2421875 279.984375 C89.22305185 277.51298145 87.22742149 275.02662246 85.2578125 272.515625 C77.6162651 262.86106061 70.73857379 257.94036168 58.84716797 254.99829102 C48.77738348 252.30515137 44.33082623 244.98936092 39.1875 236.4375 C31.57989723 224.15186146 23.07763842 213.11661864 13.6796875 202.15625 C10.3492822 198.26075788 7.15891335 194.25627588 3.97265625 190.2421875 C0.33574835 186.10258199 0.33574835 186.10258199 -4.83203125 184.7109375 C-16.70770224 185.79453757 -30.38494712 205.31196076 -38.32348633 213.43994141 C-58.94481487 234.51574066 -58.94481487 234.51574066 -66.05029297 235.36425781 C-70.46346509 234.81927744 -71.62107796 232.7305496 -74.29052734 229.39355469 C-77.09930577 225.46078352 -79.48849247 221.35825331 -81.8125 217.125 C-82.32240479 216.21242432 -82.83230957 215.29984863 -83.35766602 214.35961914 C-84.40343636 212.48587283 -85.4453682 210.60997888 -86.48339844 208.73193359 C-87.91080469 206.16067217 -89.3604564 203.60372395 -90.8203125 201.05078125 C-105.22932968 175.75518563 -105.22932968 175.75518563 -103 167 C-100.7707186 161.43031272 -97.89107138 156.24915195 -95 151 C-94.42588379 149.94603027 -93.85176758 148.89206055 -93.26025391 147.80615234 C-85.38409021 133.34928662 -77.33446029 118.99107146 -69.2109375 104.671875 C-65.78390118 98.62763741 -62.39083781 92.56459833 -59 86.5 C-48.370811 67.50112901 -37.64819287 48.55596654 -26.81640625 29.671875 C-24.42787261 25.50639632 -22.05918277 21.33112198 -19.71484375 17.140625 C-19.21936035 16.2630957 -18.72387695 15.38556641 -18.21337891 14.48144531 C-17.31292969 12.88643557 -16.42001819 11.28713407 -15.53662109 9.68261719 C-11.7897938 3.08807964 -8.21696756 -1.32058407 0 0 Z " fill="#000000" transform="translate(400,45)"/>
</svg>
